<svg width="1024" height="1024" viewBox="0 0 1024 1024" fill="none" xmlns="http://www.w3.org/2000/svg">
<rect width="1024" height="1024" fill="white"/>
<path d="M749.817 491.465C749.884 476.329 745.554 461.446 737.267 448.323C728.979 435.2 717.029 424.303 702.626 416.735C702.981 413.02 702.981 409.283 702.626 405.568C702.626 388.482 695.168 372.096 681.893 360.015C668.618 347.933 650.613 341.146 631.839 341.146H627.592C623.662 331.232 617.12 322.346 608.539 315.268C599.958 308.191 589.6 303.137 578.373 300.551C567.146 297.965 555.394 297.925 544.146 300.435C532.898 302.945 522.499 307.928 513.86 314.947C505.221 307.928 494.822 302.945 483.575 300.435C472.327 297.925 460.574 297.965 449.348 300.551C438.121 303.137 427.763 308.191 419.181 315.268C410.6 322.346 404.058 331.232 400.129 341.146H395.882C377.108 341.146 359.103 347.933 345.828 360.015C332.552 372.096 325.095 388.482 325.095 405.568C324.739 409.283 324.739 413.02 325.095 416.735C311.703 423.623 300.365 433.387 292.066 445.174C283.768 456.962 278.761 470.417 277.482 484.368C276.202 498.319 278.689 512.343 284.726 525.22C290.762 538.097 300.165 549.435 312.117 558.249C304.384 571.375 300.534 586.106 300.945 600.995C301.357 615.885 306.015 630.421 314.463 643.177C322.911 655.933 334.858 666.471 349.132 673.756C363.406 681.041 379.517 684.823 395.882 684.731H400.129C404.058 694.646 410.6 703.531 419.181 710.609C427.763 717.686 438.121 722.74 449.348 725.326C460.574 727.912 472.327 727.952 483.575 725.442C494.822 722.932 505.221 717.949 513.86 710.93C522.499 717.949 532.898 722.932 544.146 725.442C555.394 727.952 567.146 727.912 578.373 725.326C589.6 722.74 599.958 717.686 608.539 710.609C617.12 703.531 623.662 694.646 627.592 684.731H631.839C648.104 684.638 664.067 680.72 678.178 673.359C692.29 665.997 704.072 655.442 712.381 642.716C720.69 629.99 725.244 615.526 725.602 600.727C725.96 585.928 722.11 571.295 714.424 558.249C725.43 550.23 734.322 540.068 740.446 528.511C746.571 516.954 749.773 504.295 749.817 491.465ZM490.265 438.853C485.125 436.178 479.76 433.88 474.219 431.981C468.274 430.159 461.777 430.56 456.157 433.097C450.538 435.635 446.255 440.099 444.253 445.51C442.25 450.92 442.691 456.833 445.479 461.948C448.267 467.062 453.173 470.96 459.118 472.782C468.201 475.77 476.058 481.223 481.628 488.404C487.198 495.585 490.212 504.149 490.265 512.939V546.223C485.125 543.548 479.76 541.251 474.219 539.352C468.274 537.529 461.777 537.931 456.157 540.468C450.538 543.005 446.255 547.47 444.253 552.88C442.25 558.291 442.691 564.204 445.479 569.318C448.267 574.433 453.173 578.33 459.118 580.153C468.201 583.141 476.058 588.594 481.628 595.775C487.198 602.956 490.212 611.519 490.265 620.309V663.257C490.265 668.953 487.779 674.415 483.354 678.442C478.928 682.469 472.927 684.731 466.669 684.731C462.104 684.704 457.646 683.473 453.834 681.186C450.023 678.899 447.023 675.655 445.197 671.847C449.153 669.734 452.938 667.366 456.523 664.76C458.909 662.956 460.881 660.741 462.326 658.242C463.771 655.744 464.662 653.011 464.947 650.199C465.232 647.388 464.905 644.553 463.986 641.856C463.067 639.159 461.573 636.653 459.59 634.482C457.607 632.311 455.173 630.516 452.428 629.2C449.683 627.885 446.68 627.074 443.59 626.815C440.501 626.556 437.386 626.853 434.423 627.69C431.459 628.526 428.706 629.886 426.32 631.69C417.8 638.218 407.019 641.793 395.882 641.783C383.366 641.783 371.362 637.258 362.512 629.204C353.662 621.15 348.69 610.226 348.69 598.835C348.803 590.752 351.42 582.862 356.241 576.072C361.536 576.937 366.906 577.368 372.286 577.361C378.544 577.361 384.546 575.098 388.971 571.071C393.396 567.044 395.882 561.582 395.882 555.887C395.882 550.192 393.396 544.73 388.971 540.702C384.546 536.675 378.544 534.413 372.286 534.413C366.712 534.442 361.185 533.494 356.005 531.621C347.519 528.836 340.087 523.895 334.592 517.384C329.096 510.873 325.766 503.065 324.996 494.885C324.226 486.704 326.049 478.495 330.248 471.228C334.448 463.962 340.848 457.943 348.69 453.885C352.043 456.692 355.677 459.209 359.544 461.401C364.989 464.248 371.453 465.011 377.515 463.521C383.578 462.031 388.741 458.41 391.87 453.455C394.999 448.5 395.837 442.617 394.2 437.1C392.563 431.583 388.584 426.883 383.14 424.036C379.818 422.368 377.048 419.921 375.117 416.949C372.936 413.502 371.949 409.535 372.286 405.568C372.286 399.873 374.772 394.411 379.197 390.384C383.622 386.356 389.624 384.094 395.882 384.094C397.525 383.885 399.193 383.885 400.837 384.094C402.086 387.544 403.584 390.916 405.32 394.187C406.861 396.648 408.923 398.806 411.385 400.539C413.847 402.272 416.661 403.544 419.666 404.282C422.671 405.021 425.806 405.211 428.892 404.842C431.978 404.473 434.953 403.552 437.646 402.132C442.877 399.268 446.685 394.669 448.269 389.304C449.853 383.938 449.09 378.222 446.141 373.357C444.161 370.063 443.107 366.374 443.073 362.62C443.073 356.925 445.559 351.463 449.984 347.435C454.409 343.408 460.411 341.146 466.669 341.146C472.927 341.146 478.928 343.408 483.354 347.435C487.779 351.463 490.265 356.925 490.265 362.62V438.853ZM671.716 531.621C666.536 533.494 661.008 534.442 655.435 534.413C649.177 534.413 643.175 536.675 638.75 540.702C634.325 544.73 631.839 550.192 631.839 555.887C631.839 561.582 634.325 567.044 638.75 571.071C643.175 575.098 649.177 577.361 655.435 577.361C660.814 577.368 666.184 576.937 671.48 576.072C676.3 582.862 678.917 590.752 679.03 598.835C679.03 610.226 674.058 621.15 665.208 629.204C656.358 637.258 644.355 641.783 631.839 641.783C620.702 641.793 609.92 638.218 601.4 631.69C596.582 628.045 590.369 626.292 584.13 626.815C577.891 627.339 572.136 630.097 568.13 634.482C564.125 638.867 562.198 644.521 562.774 650.199C563.349 655.878 566.379 661.116 571.198 664.76C574.782 667.366 578.567 669.734 582.524 671.847C580.698 675.655 577.697 678.899 573.886 681.186C570.075 683.473 565.617 684.704 561.052 684.731C554.794 684.731 548.792 682.469 544.367 678.442C539.942 674.415 537.456 668.953 537.456 663.257V620.309C537.508 611.519 540.523 602.956 546.093 595.775C551.663 588.594 559.519 583.141 568.602 580.153C574.547 578.33 579.453 574.433 582.241 569.318C585.029 564.204 585.47 558.291 583.468 552.88C581.465 547.47 577.183 543.005 571.563 540.468C565.943 537.931 559.446 537.529 553.501 539.352C547.961 541.251 542.595 543.548 537.456 546.223V512.939C537.508 504.149 540.523 495.585 546.093 488.404C551.663 481.223 559.519 475.77 568.602 472.782C574.547 470.96 579.453 467.062 582.241 461.948C585.029 456.833 585.47 450.92 583.468 445.51C581.465 440.099 577.183 435.635 571.563 433.097C565.943 430.56 559.446 430.159 553.501 431.981C547.961 433.88 542.595 436.178 537.456 438.853V362.62C537.456 356.925 539.942 351.463 544.367 347.435C548.792 343.408 554.794 341.146 561.052 341.146C567.31 341.146 573.311 343.408 577.736 347.435C582.161 351.463 584.647 356.925 584.647 362.62C584.614 366.374 583.56 370.063 581.58 373.357C580.01 375.795 578.984 378.491 578.562 381.291C578.139 384.09 578.328 386.938 579.117 389.672C579.906 392.405 581.28 394.969 583.16 397.218C585.041 399.467 587.39 401.356 590.074 402.777C592.768 404.196 595.743 405.117 598.828 405.486C601.914 405.855 605.05 405.665 608.054 404.927C611.059 404.188 613.874 402.916 616.336 401.183C618.798 399.451 620.859 397.292 622.401 394.831C624.167 391.351 625.665 387.763 626.884 384.094C628.528 383.885 630.195 383.885 631.839 384.094C638.097 384.094 644.099 386.356 648.524 390.384C652.949 394.411 655.435 399.873 655.435 405.568C655.398 409.778 654.004 413.885 651.423 417.379C649.494 420.166 646.813 422.457 643.637 424.036C638.192 426.883 634.214 431.583 632.577 437.1C630.939 442.617 631.777 448.5 634.906 453.455C638.035 458.41 643.199 462.031 649.261 463.521C655.324 465.011 661.788 464.248 667.232 461.401C671.469 459.316 675.428 456.794 679.03 453.885C686.899 457.871 693.351 463.824 697.623 471.039C701.895 478.255 703.809 486.432 703.139 494.606C702.469 502.779 699.243 510.608 693.843 517.167C688.442 523.726 681.091 528.741 672.659 531.621H671.716Z" fill="#6563FF"/>
<path d="M512 201C689.469 201 833 340.199 833 511.5C833 682.801 689.469 822 512 822C334.531 822 191 682.801 191 511.5C191 340.199 334.531 201 512 201Z" stroke="#584FF1" stroke-width="12"/>
</svg>
