<svg width="1024" height="1024" viewBox="0 0 1024 1024" fill="none" xmlns="http://www.w3.org/2000/svg">
<rect width="1024" height="1024" fill="white"/>
<path d="M749.817 491.464C749.884 476.329 745.554 461.446 737.267 448.323C728.98 435.2 717.029 424.302 702.626 416.735C702.981 413.019 702.981 409.283 702.626 405.568C702.626 388.482 695.168 372.096 681.893 360.015C668.618 347.933 650.613 341.146 631.839 341.146H627.592C623.662 331.231 617.12 322.346 608.539 315.268C599.958 308.191 589.6 303.137 578.373 300.551C567.146 297.965 555.394 297.925 544.146 300.435C532.898 302.945 522.499 307.928 513.86 314.947C505.221 307.928 494.822 302.945 483.575 300.435C472.327 297.925 460.574 297.965 449.348 300.551C438.121 303.137 427.763 308.191 419.181 315.268C410.6 322.346 404.058 331.231 400.129 341.146H395.882C377.108 341.146 359.103 347.933 345.828 360.015C332.552 372.096 325.095 388.482 325.095 405.568C324.739 409.283 324.739 413.019 325.095 416.735C311.703 423.623 300.365 433.387 292.066 445.174C283.768 456.962 278.761 470.417 277.482 484.368C276.202 498.319 278.689 512.343 284.726 525.22C290.762 538.097 300.165 549.435 312.117 558.249C304.384 571.375 300.534 586.106 300.945 600.995C301.357 615.885 306.015 630.421 314.463 643.177C322.911 655.933 334.858 666.471 349.132 673.756C363.406 681.041 379.516 684.823 395.882 684.731H400.129C404.058 694.646 410.6 703.531 419.181 710.609C427.763 717.686 438.121 722.74 449.348 725.326C460.574 727.912 472.327 727.952 483.575 725.442C494.822 722.932 505.221 717.949 513.86 710.93C522.499 717.949 532.898 722.932 544.146 725.442C555.394 727.952 567.146 727.912 578.373 725.326C589.6 722.74 599.958 717.686 608.539 710.609C617.12 703.531 623.662 694.646 627.592 684.731H631.839C648.104 684.638 664.067 680.72 678.178 673.359C692.29 665.997 704.072 655.442 712.381 642.716C720.69 629.99 725.244 615.526 725.602 600.727C725.96 585.928 722.11 571.295 714.424 558.249C725.43 550.23 734.322 540.068 740.446 528.511C746.571 516.954 749.773 504.295 749.817 491.464ZM490.265 438.853C485.125 436.178 479.76 433.88 474.219 431.981C468.274 430.159 461.777 430.56 456.157 433.097C450.538 435.634 446.255 440.099 444.253 445.51C442.25 450.92 442.691 456.833 445.479 461.948C448.267 467.062 453.173 470.96 459.118 472.782C468.201 475.77 476.058 481.223 481.628 488.404C487.197 495.585 490.212 504.149 490.265 512.939V546.223C485.125 543.548 479.76 541.251 474.219 539.352C468.274 537.529 461.777 537.931 456.157 540.468C450.538 543.005 446.255 547.47 444.253 552.88C442.25 558.291 442.691 564.204 445.479 569.318C448.267 574.433 453.173 578.33 459.118 580.153C468.201 583.141 476.058 588.594 481.628 595.775C487.197 602.956 490.212 611.519 490.265 620.309V663.257C490.265 668.953 487.779 674.415 483.354 678.442C478.928 682.469 472.927 684.731 466.669 684.731C462.104 684.704 457.646 683.473 453.834 681.186C450.023 678.899 447.023 675.655 445.197 671.847C449.153 669.734 452.938 667.366 456.523 664.76C458.909 662.956 460.881 660.741 462.326 658.242C463.771 655.744 464.662 653.011 464.947 650.199C465.232 647.388 464.905 644.553 463.986 641.856C463.067 639.159 461.573 636.653 459.59 634.482C457.607 632.311 455.173 630.516 452.428 629.2C449.683 627.885 446.68 627.074 443.59 626.815C440.501 626.556 437.386 626.853 434.423 627.69C431.459 628.526 428.706 629.886 426.32 631.69C417.8 638.218 407.019 641.793 395.882 641.783C383.366 641.783 371.362 637.258 362.512 629.204C353.662 621.15 348.69 610.226 348.69 598.835C348.803 590.752 351.42 582.862 356.241 576.072C361.536 576.937 366.906 577.368 372.286 577.361C378.544 577.361 384.546 575.098 388.971 571.071C393.396 567.044 395.882 561.582 395.882 555.887C395.882 550.191 393.396 544.729 388.971 540.702C384.546 536.675 378.544 534.413 372.286 534.413C366.712 534.442 361.185 533.494 356.005 531.621C347.519 528.836 340.087 523.895 334.592 517.384C329.096 510.873 325.766 503.065 324.996 494.885C324.226 486.704 326.049 478.495 330.248 471.228C334.448 463.962 340.848 457.943 348.69 453.885C352.043 456.692 355.677 459.209 359.544 461.401C364.989 464.248 371.453 465.011 377.515 463.521C383.578 462.031 388.741 458.41 391.87 453.455C394.999 448.5 395.837 442.617 394.2 437.1C392.563 431.583 388.584 426.883 383.14 424.036C379.818 422.368 377.048 419.921 375.117 416.949C372.936 413.502 371.949 409.535 372.286 405.568C372.286 399.873 374.772 394.411 379.197 390.384C383.622 386.356 389.624 384.094 395.882 384.094C397.525 383.885 399.193 383.885 400.837 384.094C402.086 387.544 403.584 390.916 405.32 394.187C406.861 396.647 408.923 398.806 411.385 400.539C413.847 402.272 416.661 403.544 419.666 404.282C422.671 405.021 425.806 405.211 428.892 404.842C431.978 404.473 434.953 403.552 437.646 402.132C442.877 399.268 446.685 394.669 448.269 389.303C449.853 383.938 449.09 378.222 446.141 373.357C444.161 370.063 443.107 366.374 443.073 362.62C443.073 356.925 445.559 351.463 449.984 347.435C454.409 343.408 460.411 341.146 466.669 341.146C472.927 341.146 478.928 343.408 483.354 347.435C487.779 351.463 490.265 356.925 490.265 362.62V438.853ZM671.716 531.621C666.536 533.494 661.008 534.442 655.435 534.413C649.177 534.413 643.175 536.675 638.75 540.702C634.325 544.729 631.839 550.191 631.839 555.887C631.839 561.582 634.325 567.044 638.75 571.071C643.175 575.098 649.177 577.361 655.435 577.361C660.814 577.368 666.184 576.937 671.48 576.072C676.3 582.862 678.917 590.752 679.03 598.835C679.03 610.226 674.058 621.15 665.208 629.204C656.358 637.258 644.355 641.783 631.839 641.783C620.702 641.793 609.92 638.218 601.4 631.69C596.582 628.045 590.369 626.292 584.13 626.815C577.891 627.339 572.136 630.097 568.13 634.482C564.125 638.867 562.198 644.521 562.774 650.199C563.349 655.878 566.379 661.115 571.198 664.76C574.782 667.366 578.567 669.734 582.524 671.847C580.698 675.655 577.697 678.899 573.886 681.186C570.075 683.473 565.617 684.704 561.052 684.731C554.794 684.731 548.792 682.469 544.367 678.442C539.942 674.415 537.456 668.953 537.456 663.257V620.309C537.508 611.519 540.523 602.956 546.093 595.775C551.663 588.594 559.519 583.141 568.602 580.153C574.547 578.33 579.453 574.433 582.241 569.318C585.029 564.204 585.47 558.291 583.468 552.88C581.465 547.47 577.183 543.005 571.563 540.468C565.943 537.931 559.446 537.529 553.501 539.352C547.961 541.251 542.595 543.548 537.456 546.223V512.939C537.508 504.149 540.523 495.585 546.093 488.404C551.663 481.223 559.519 475.77 568.602 472.782C574.547 470.96 579.453 467.062 582.241 461.948C585.029 456.833 585.47 450.92 583.468 445.51C581.465 440.099 577.183 435.634 571.563 433.097C565.943 430.56 559.446 430.159 553.501 431.981C547.961 433.88 542.595 436.178 537.456 438.853V362.62C537.456 356.925 539.942 351.463 544.367 347.435C548.792 343.408 554.794 341.146 561.052 341.146C567.31 341.146 573.311 343.408 577.736 347.435C582.161 351.463 584.647 356.925 584.647 362.62C584.614 366.374 583.56 370.063 581.58 373.357C580.01 375.795 578.984 378.491 578.562 381.291C578.139 384.09 578.328 386.938 579.117 389.671C579.906 392.405 581.28 394.969 583.16 397.218C585.041 399.467 587.39 401.356 590.074 402.776C592.768 404.196 595.743 405.117 598.828 405.486C601.914 405.855 605.05 405.665 608.054 404.927C611.059 404.188 613.874 402.916 616.336 401.183C618.798 399.451 620.859 397.292 622.401 394.831C624.167 391.351 625.665 387.763 626.884 384.094C628.528 383.885 630.195 383.885 631.839 384.094C638.097 384.094 644.099 386.356 648.524 390.384C652.949 394.411 655.435 399.873 655.435 405.568C655.398 409.778 654.004 413.885 651.423 417.379C649.494 420.165 646.813 422.457 643.637 424.036C638.192 426.883 634.214 431.583 632.577 437.1C630.939 442.617 631.777 448.5 634.906 453.455C638.035 458.41 643.199 462.031 649.261 463.521C655.324 465.011 661.788 464.248 667.232 461.401C671.469 459.316 675.428 456.794 679.03 453.885C686.899 457.871 693.351 463.824 697.623 471.039C701.895 478.255 703.809 486.432 703.139 494.606C702.469 502.779 699.243 510.608 693.843 517.167C688.442 523.726 681.091 528.741 672.659 531.621H671.716Z" fill="#6563FF"/>
<path d="M512 201C689.469 201 833 340.199 833 511.5C833 682.801 689.469 822 512 822C334.531 822 191 682.801 191 511.5C191 340.199 334.531 201 512 201Z" stroke="#584FF1" stroke-width="12"/>
<path d="M317.648 916H307.568L270.896 859.072H270.512C270.576 860.224 270.64 861.504 270.704 862.912C270.832 864.32 270.928 865.856 270.992 867.52C271.056 869.12 271.12 870.784 271.184 872.512C271.248 874.24 271.28 875.968 271.28 877.696V916H263.312V847.456H273.296L309.872 904.192H310.256C310.192 903.424 310.128 902.368 310.064 901.024C310 899.616 309.936 898.08 309.872 896.416C309.808 894.688 309.744 892.928 309.68 891.136C309.616 889.344 309.584 887.68 309.584 886.144V847.456H317.648V916ZM354.01 863.584C358.426 863.584 362.202 864.544 365.338 866.464C368.538 868.384 370.97 871.104 372.634 874.624C374.362 878.08 375.226 882.144 375.226 886.816V891.904H339.994C340.122 897.728 341.594 902.176 344.41 905.248C347.29 908.256 351.29 909.76 356.41 909.76C359.674 909.76 362.554 909.472 365.05 908.896C367.61 908.256 370.234 907.36 372.922 906.208V913.6C370.298 914.752 367.706 915.584 365.146 916.096C362.586 916.672 359.546 916.96 356.026 916.96C351.162 916.96 346.842 915.968 343.066 913.984C339.354 912 336.442 909.056 334.33 905.152C332.282 901.184 331.258 896.352 331.258 890.656C331.258 885.024 332.186 880.192 334.042 876.16C335.962 872.128 338.618 869.024 342.01 866.848C345.466 864.672 349.466 863.584 354.01 863.584ZM353.914 870.496C349.882 870.496 346.682 871.808 344.314 874.432C342.01 876.992 340.634 880.576 340.186 885.184H366.394C366.394 882.24 365.946 879.68 365.05 877.504C364.154 875.328 362.778 873.632 360.922 872.416C359.13 871.136 356.794 870.496 353.914 870.496ZM430.373 864.544V916H423.461L422.213 909.184H421.829C420.741 910.976 419.333 912.448 417.605 913.6C415.877 914.752 413.989 915.584 411.941 916.096C409.893 916.672 407.749 916.96 405.509 916.96C401.413 916.96 397.957 916.32 395.141 915.04C392.389 913.696 390.309 911.648 388.901 908.896C387.493 906.144 386.789 902.592 386.789 898.24V864.544H395.333V897.664C395.333 901.76 396.261 904.832 398.117 906.88C399.973 908.928 402.853 909.952 406.757 909.952C410.597 909.952 413.605 909.248 415.781 907.84C418.021 906.368 419.589 904.256 420.485 901.504C421.445 898.688 421.925 895.296 421.925 891.328V864.544H430.373ZM469.749 863.584C470.709 863.584 471.733 863.648 472.821 863.776C473.973 863.84 474.965 863.968 475.797 864.16L474.741 871.936C473.909 871.744 472.981 871.584 471.957 871.456C470.997 871.328 470.069 871.264 469.173 871.264C467.189 871.264 465.301 871.68 463.509 872.512C461.717 873.344 460.117 874.528 458.709 876.064C457.301 877.536 456.181 879.328 455.349 881.44C454.581 883.552 454.197 885.92 454.197 888.544V916H445.749V864.544H452.661L453.621 873.952H454.005C455.093 872.032 456.405 870.304 457.941 868.768C459.477 867.168 461.237 865.92 463.221 865.024C465.205 864.064 467.381 863.584 469.749 863.584ZM527.306 890.176C527.306 894.464 526.73 898.272 525.578 901.6C524.49 904.864 522.89 907.648 520.778 909.952C518.73 912.256 516.202 914.016 513.194 915.232C510.25 916.384 506.954 916.96 503.306 916.96C499.914 916.96 496.778 916.384 493.898 915.232C491.018 914.016 488.522 912.256 486.41 909.952C484.298 907.648 482.634 904.864 481.418 901.6C480.266 898.272 479.69 894.464 479.69 890.176C479.69 884.48 480.65 879.68 482.57 875.776C484.49 871.808 487.242 868.8 490.826 866.752C494.41 864.64 498.666 863.584 503.594 863.584C508.266 863.584 512.362 864.64 515.882 866.752C519.466 868.8 522.25 871.808 524.234 875.776C526.282 879.68 527.306 884.48 527.306 890.176ZM488.426 890.176C488.426 894.208 488.938 897.728 489.962 900.736C491.05 903.68 492.714 905.952 494.954 907.552C497.194 909.152 500.042 909.952 503.498 909.952C506.954 909.952 509.802 909.152 512.042 907.552C514.282 905.952 515.914 903.68 516.938 900.736C518.026 897.728 518.57 894.208 518.57 890.176C518.57 886.08 518.026 882.592 516.938 879.712C515.85 876.832 514.186 874.624 511.946 873.088C509.77 871.488 506.922 870.688 503.402 870.688C498.154 870.688 494.346 872.416 491.978 875.872C489.61 879.328 488.426 884.096 488.426 890.176ZM549.188 916L529.7 864.544H538.724L549.668 894.88C550.18 896.288 550.724 897.856 551.3 899.584C551.876 901.312 552.388 902.976 552.836 904.576C553.284 906.112 553.604 907.424 553.796 908.512H554.18C554.436 907.424 554.788 906.08 555.236 904.48C555.748 902.88 556.292 901.216 556.868 899.488C557.508 897.76 558.052 896.224 558.5 894.88L569.444 864.544H578.468L558.884 916H549.188ZM605.522 863.584C609.938 863.584 613.714 864.544 616.85 866.464C620.05 868.384 622.482 871.104 624.146 874.624C625.874 878.08 626.738 882.144 626.738 886.816V891.904H591.506C591.634 897.728 593.106 902.176 595.922 905.248C598.802 908.256 602.802 909.76 607.922 909.76C611.186 909.76 614.066 909.472 616.562 908.896C619.122 908.256 621.746 907.36 624.434 906.208V913.6C621.81 914.752 619.218 915.584 616.658 916.096C614.098 916.672 611.058 916.96 607.538 916.96C602.674 916.96 598.354 915.968 594.578 913.984C590.866 912 587.954 909.056 585.842 905.152C583.794 901.184 582.77 896.352 582.77 890.656C582.77 885.024 583.698 880.192 585.554 876.16C587.474 872.128 590.13 869.024 593.522 866.848C596.978 864.672 600.978 863.584 605.522 863.584ZM605.426 870.496C601.394 870.496 598.194 871.808 595.826 874.432C593.522 876.992 592.146 880.576 591.698 885.184H617.906C617.906 882.24 617.458 879.68 616.562 877.504C615.666 875.328 614.29 873.632 612.434 872.416C610.642 871.136 608.306 870.496 605.426 870.496ZM663.646 863.584C669.79 863.584 674.43 865.088 677.566 868.096C680.701 871.04 682.269 875.84 682.269 882.496V916H673.918V883.072C673.918 878.912 672.99 875.808 671.134 873.76C669.278 871.712 666.366 870.688 662.398 870.688C656.701 870.688 652.766 872.288 650.59 875.488C648.413 878.688 647.325 883.296 647.325 889.312V916H638.877V864.544H645.693L646.942 871.552H647.421C648.573 869.76 649.981 868.288 651.645 867.136C653.373 865.92 655.261 865.024 657.309 864.448C659.358 863.872 661.47 863.584 663.646 863.584ZM740.269 864.544V916H733.357L732.109 909.184H731.725C730.637 910.976 729.229 912.448 727.501 913.6C725.773 914.752 723.885 915.584 721.837 916.096C719.789 916.672 717.645 916.96 715.405 916.96C711.309 916.96 707.853 916.32 705.037 915.04C702.285 913.696 700.205 911.648 698.797 908.896C697.389 906.144 696.685 902.592 696.685 898.24V864.544H705.229V897.664C705.229 901.76 706.157 904.832 708.013 906.88C709.869 908.928 712.749 909.952 716.653 909.952C720.493 909.952 723.501 909.248 725.677 907.84C727.917 906.368 729.485 904.256 730.381 901.504C731.341 898.688 731.821 895.296 731.821 891.328V864.544H740.269ZM789.149 901.792C789.149 905.12 788.317 907.904 786.653 910.144C784.989 912.384 782.621 914.08 779.549 915.232C776.477 916.384 772.829 916.96 768.605 916.96C765.021 916.96 761.917 916.672 759.293 916.096C756.733 915.52 754.461 914.72 752.477 913.696V906.016C754.525 907.04 756.989 908 759.869 908.896C762.813 909.728 765.789 910.144 768.797 910.144C773.085 910.144 776.189 909.472 778.109 908.128C780.029 906.72 780.989 904.864 780.989 902.56C780.989 901.28 780.637 900.128 779.933 899.104C779.229 898.08 777.949 897.056 776.093 896.032C774.301 895.008 771.709 893.856 768.317 892.576C764.989 891.296 762.141 890.016 759.773 888.736C757.405 887.456 755.581 885.92 754.301 884.128C753.021 882.336 752.381 880.032 752.381 877.216C752.381 872.864 754.141 869.504 757.661 867.136C761.245 864.768 765.917 863.584 771.677 863.584C774.813 863.584 777.725 863.904 780.413 864.544C783.165 865.12 785.725 865.952 788.093 867.04L785.213 873.76C783.805 873.12 782.301 872.576 780.701 872.128C779.165 871.616 777.597 871.232 775.997 870.976C774.397 870.656 772.765 870.496 771.101 870.496C767.645 870.496 764.989 871.072 763.133 872.224C761.341 873.312 760.445 874.816 760.445 876.736C760.445 878.144 760.861 879.36 761.693 880.384C762.525 881.344 763.901 882.304 765.821 883.264C767.805 884.16 770.429 885.248 773.693 886.528C776.957 887.744 779.741 888.992 782.045 890.272C784.349 891.552 786.109 893.12 787.325 894.976C788.541 896.768 789.149 899.04 789.149 901.792Z" fill="#0F3287"/>
</svg>
